<?xml version="1.0" standalone="no"?>
<!DOCTYPE svg PUBLIC "-//W3C//DTD SVG 20010904//EN"
 "http://www.w3.org/TR/2001/REC-SVG-20010904/DTD/svg10.dtd">
<svg version="1.0" xmlns="http://www.w3.org/2000/svg"
 width="1024.000000pt" height="1024.000000pt" viewBox="0 0 1024.000000 1024.000000"
 preserveAspectRatio="xMidYMid meet">

<g transform="translate(0.000000,1024.000000) scale(0.100000,-0.100000)"
fill="#000000" stroke="none">
<path d="M5055 8524 c-357 -36 -614 -90 -902 -188 -1233 -423 -2155 -1495
-2387 -2776 -43 -241 -51 -339 -51 -655 0 -305 7 -395 46 -625 103 -594 360
-1162 745 -1645 118 -148 411 -440 559 -557 545 -432 1148 -685 1850 -774 172
-22 621 -25 790 -6 861 99 1593 449 2190 1047 537 536 882 1200 1010 1937 40
237 50 350 50 623 0 273 -10 386 -50 623 -163 943 -692 1775 -1491 2348 -197
141 -490 299 -736 398 -282 113 -551 183 -894 232 -104 15 -632 28 -729 18z
m705 -438 c884 -134 1611 -561 2131 -1252 363 -482 575 -1036 630 -1648 17
-183 6 -552 -21 -731 -95 -632 -358 -1195 -787 -1680 l-51 -59 -29 35 c-330
398 -775 717 -1245 891 -65 23 -117 46 -115 49 1 4 40 35 87 70 234 175 445
450 555 724 39 98 86 267 107 385 17 98 17 412 0 510 -92 524 -382 952 -824
1215 -414 247 -936 302 -1398 149 -585 -194 -1016 -682 -1141 -1289 -30 -146
-37 -414 -15 -563 48 -327 172 -609 377 -857 92 -112 249 -257 342 -314 37
-22 48 -41 25 -41 -27 0 -304 -117 -428 -182 -150 -77 -371 -221 -498 -324
-113 -91 -295 -267 -383 -370 -61 -72 -74 -82 -87 -72 -8 7 -62 69 -119 137
-116 139 -262 353 -347 508 -332 605 -461 1332 -356 2014 138 904 641 1689
1405 2196 424 281 910 453 1445 512 130 15 615 6 740 -13z m-270 -1697 c642
-79 1120 -621 1120 -1269 0 -345 -131 -662 -375 -905 -331 -332 -812 -453
-1267 -321 -199 58 -379 166 -534 321 -249 247 -378 555 -378 905 0 265 71
496 221 723 65 98 239 270 344 340 257 170 567 244 869 206z m215 -3003 c504
-80 961 -296 1337 -633 83 -74 214 -212 279 -294 l29 -37 -72 -57 c-86 -68
-261 -183 -373 -247 -698 -396 -1548 -511 -2343 -317 -218 53 -464 145 -675
251 -166 83 -432 254 -530 339 l-38 34 57 70 c82 100 253 268 365 357 371 297
814 482 1299 544 138 17 527 11 665 -10z"/>
</g>
</svg>
