<?xml version="1.0" standalone="no"?>
<!DOCTYPE svg PUBLIC "-//W3C//DTD SVG 20010904//EN"
 "http://www.w3.org/TR/2001/REC-SVG-20010904/DTD/svg10.dtd">
<svg version="1.0" xmlns="http://www.w3.org/2000/svg"
 width="512.000000pt" height="512.000000pt" viewBox="0 0 512.000000 512.000000"
 preserveAspectRatio="xMidYMid meet">

<g transform="translate(0.000000,512.000000) scale(0.100000,-0.100000)"
fill="#000000" stroke="none">
<path d="M1826 4558 c-13 -18 -16 -56 -16 -205 l0 -183 -663 0 c-557 0 -666
-2 -683 -14 -19 -14 -19 -42 -24 -1330 l-5 -1315 -210 -186 c-116 -103 -214
-196 -218 -208 -4 -12 -7 -139 -5 -283 2 -203 6 -265 17 -277 12 -16 203 -17
2541 -17 2338 0 2529 1 2541 17 11 12 15 74 17 277 2 144 -1 272 -5 284 -5 11
-103 105 -218 208 l-210 186 -5 1315 c-5 1287 -5 1315 -24 1329 -14 10 -51 14
-133 14 l-113 0 0 93 c0 140 4 137 -184 137 -196 0 -190 4 -194 -129 l-4 -101
-78 0 -78 0 -4 94 c-5 138 -2 136 -193 136 -188 0 -183 4 -187 -130 l-3 -95
-90 0 -90 0 -3 184 c-2 154 -5 188 -19 203 -15 17 -55 18 -729 18 l-713 0 -15
-22z m1342 -245 l-3 -138 -610 0 -610 0 -3 138 -3 137 616 0 616 0 -3 -137z
m562 -1398 l0 -1355 -55 0 -55 0 0 1355 0 1355 55 0 55 0 0 -1355z m550 0 l0
-1355 -55 0 -55 0 0 1355 0 1355 55 0 55 0 0 -1355z m-790 -115 l0 -1240 -160
0 -160 0 0 632 c0 573 -2 633 -17 650 -15 17 -47 18 -599 18 l-583 0 -15 -22
c-14 -20 -16 -98 -16 -650 l0 -628 -680 0 -680 0 0 1240 0 1240 1455 0 1455 0
0 -1240z m540 0 l0 -1240 -80 0 -80 0 0 1240 0 1240 80 0 80 0 0 -1240z m510
0 l0 -1240 -65 0 -65 0 0 1240 0 1240 65 0 65 0 0 -1240z m-2050 -655 l0 -585
-210 0 -210 0 0 585 0 585 210 0 210 0 0 -585z m550 0 l0 -585 -205 0 -205 0
0 585 0 585 205 0 205 0 0 -585z m1683 -846 c75 -67 137 -126 137 -130 0 -5
-1011 -9 -2300 -9 -1289 0 -2300 4 -2300 9 0 4 62 63 137 130 l137 121 2026 0
2026 0 137 -121z m257 -449 l0 -180 -2420 0 -2420 0 0 180 0 180 2420 0 2420
0 0 -180z"/>
<path d="M820 3829 c-13 -5 -28 -15 -32 -22 -4 -7 -8 -96 -8 -198 0 -168 2
-188 18 -202 16 -15 45 -17 200 -17 240 0 222 -18 222 223 0 238 16 221 -209
224 -95 1 -176 -2 -191 -8z m270 -219 l0 -90 -90 0 -90 0 0 90 0 90 90 0 90 0
0 -90z"/>
<path d="M1360 3833 c-48 -18 -50 -25 -50 -224 0 -183 1 -188 22 -203 18 -13
56 -16 204 -16 163 0 183 2 197 18 15 16 17 45 17 203 0 101 -4 189 -8 196
-16 25 -68 33 -215 32 -84 0 -159 -3 -167 -6z m260 -223 l0 -90 -90 0 -90 0 0
90 0 90 90 0 90 0 0 -90z"/>
<path d="M797 3272 c-15 -16 -17 -45 -17 -204 0 -166 2 -187 18 -201 16 -15
45 -17 204 -17 166 0 187 2 201 18 15 16 17 45 17 204 0 166 -2 187 -18 201
-16 15 -45 17 -204 17 -166 0 -187 -2 -201 -18z m293 -202 l0 -90 -90 0 -90 0
0 90 0 90 90 0 90 0 0 -90z"/>
<path d="M1327 3272 c-15 -16 -17 -45 -17 -204 0 -166 2 -187 18 -201 16 -15
45 -17 204 -17 166 0 187 2 201 18 15 16 17 45 17 204 0 166 -2 187 -18 201
-16 15 -45 17 -204 17 -166 0 -187 -2 -201 -18z m293 -202 l0 -90 -90 0 -90 0
0 90 0 90 90 0 90 0 0 -90z"/>
<path d="M802 2734 c-21 -15 -22 -20 -22 -203 0 -146 3 -191 14 -207 13 -17
30 -19 182 -22 92 -2 177 -1 190 2 51 13 54 24 54 222 0 242 17 224 -218 224
-144 0 -182 -3 -200 -16z m286 -206 l3 -88 -91 0 -90 0 0 83 c0 46 3 87 7 91
4 4 43 5 88 4 l80 -3 3 -87z"/>
<path d="M1330 2730 c-19 -19 -20 -33 -20 -204 0 -198 3 -209 54 -222 13 -3
98 -4 190 -2 152 3 169 5 182 22 11 16 14 61 14 207 0 183 -1 188 -22 203 -18
13 -56 16 -200 16 -165 0 -180 -2 -198 -20z m288 -202 l3 -88 -91 0 -90 0 0
83 c0 46 3 87 7 91 4 4 43 5 88 4 l80 -3 3 -87z"/>
<path d="M820 2203 c-36 -13 -40 -33 -40 -224 0 -183 1 -188 22 -203 18 -13
56 -16 200 -16 235 0 218 -17 218 223 0 100 -4 187 -8 193 -19 28 -55 34 -214
33 -90 0 -170 -3 -178 -6z m268 -220 l-3 -88 -87 -3 -88 -3 0 91 0 90 90 0 91
0 -3 -87z"/>
<path d="M1345 2198 c-11 -6 -23 -16 -27 -22 -4 -6 -8 -93 -8 -193 0 -240 -17
-223 218 -223 144 0 182 3 200 16 21 15 22 20 22 203 0 146 -3 191 -14 207
-13 17 -29 19 -193 22 -122 1 -184 -2 -198 -10z m275 -218 l0 -91 -87 3 -88 3
-3 88 -3 87 91 0 90 0 0 -90z"/>
</g>
</svg>
